<svg xmlns="http://www.w3.org/2000/svg" width="540" height="540" viewBox="0 0 180 180">
  <metadata><?xpacket begin="﻿" id="W5M0MpCehiHzreSzNTczkc9d"?>
<x:xmpmeta xmlns:x="adobe:ns:meta/" x:xmptk="Adobe XMP Core 5.6-c142 79.160924, 2017/07/13-01:06:39        ">
   <rdf:RDF xmlns:rdf="http://www.w3.org/1999/02/22-rdf-syntax-ns#">
      <rdf:Description rdf:about=""/>
   </rdf:RDF>
</x:xmpmeta>
                                                                                                    
                                                                                                    
                                                                                                    
                                                                                                    
                                                                                                    
                                                                                                    
                                                                                                    
                                                                                                    
                                                                                                    
                                                                                                    
                                                                                                    
                                                                                                    
                                                                                                    
                                                                                                    
                                                                                                    
                                                                                                    
                                                                                                    
                                                                                                    
                                                                                                    
                                                                                                    
                           
<?xpacket end="w"?></metadata>
<defs>
    <style>
      .cls-1 {
        fill: #fff;
        fill-rule: evenodd;
      }
    </style>
  </defs>
  <path id="最新公告" class="cls-1" d="M80.358,170.078q-9.18-7.912-19.437-16.516T41.845,137.735q-10.257-8.259-20.515-16.344-1.979.172-3.959,0.172a32.307,32.307,0,0,1-3.419.172H10.893A11.174,11.174,0,0,1,2.975,118.9a8.948,8.948,0,0,1-3.06-6.8V68.748H0.1l-0.18-.173A10.68,10.68,0,0,1,10.893,57.563H21.15Q37.706,44.145,51.2,33.478q5.758-4.644,11.336-9.031t10.078-8q4.5-3.613,7.558-6.022T83.957,7.5q5.4-3.783,8.727-3.44a6.915,6.915,0,0,1,5.22,3.1,17.135,17.135,0,0,1,2.609,6.709,40.64,40.64,0,0,1,.719,7.226V160.443a21.654,21.654,0,0,1-1.257,6.968,12.668,12.668,0,0,1-3.87,5.85,8.729,8.729,0,0,1-6.57,1.805q-3.957-.342-9.176-4.988h0ZM138.484,67.887a50.9,50.9,0,0,1,6.029,10.063,30.285,30.285,0,0,1,2.249,12.3,31.382,31.382,0,0,1-2.34,12.387,42.033,42.033,0,0,1-5.938,9.978,24.467,24.467,0,0,1-3.059,3.355,5.941,5.941,0,0,1-4.139,1.461A7.489,7.489,0,0,1,125.8,115.2a7.26,7.26,0,0,1-2.249-5.335,7.511,7.511,0,0,1,.539-2.751h-0.18a22.172,22.172,0,0,1,2.16-3.612q1.26-1.722,2.429-3.528a19.143,19.143,0,0,0,1.979-4.129,17.035,17.035,0,0,0,.811-5.592,16.419,16.419,0,0,0-.811-5.419,21.312,21.312,0,0,0-1.979-4.216q-1.17-1.889-2.429-3.612a15.333,15.333,0,0,1-1.98-3.611,6.664,6.664,0,0,1-.539-2.754,7.257,7.257,0,0,1,2.249-5.333,7.49,7.49,0,0,1,5.489-2.237,5.943,5.943,0,0,1,4.137,1.461,24.373,24.373,0,0,1,3.061,3.356h0Zm10.077,77.246a8.423,8.423,0,0,1-5.038,1.546,8.679,8.679,0,0,1-6.208-2.493,7.928,7.928,0,0,1-2.61-5.936,8.008,8.008,0,0,1,3.06-6.364,1.456,1.456,0,0,1,.359-0.26,1.331,1.331,0,0,0,.36-0.257l0.18-.172a53.272,53.272,0,0,0,9.358-7.742,57.483,57.483,0,0,0,7.56-9.719,47.4,47.4,0,0,0,5.036-11.184,42.125,42.125,0,0,0,1.8-12.3,42.79,42.79,0,0,0-6.836-23.569,59.613,59.613,0,0,0-17.1-17.548,8.111,8.111,0,0,1-1.169-12.818,8.674,8.674,0,0,1,6.208-2.494,8.341,8.341,0,0,1,5.4,1.892,77.505,77.505,0,0,1,12.416,10.409,69.366,69.366,0,0,1,9.9,12.9,65.136,65.136,0,0,1,6.478,14.88,57.331,57.331,0,0,1,2.34,16.343,57.939,57.939,0,0,1-2.34,16.516,64.6,64.6,0,0,1-6.569,14.967,71.071,71.071,0,0,1-9.986,12.99,73.788,73.788,0,0,1-12.6,10.409h0Zm0,0"/>
</svg>
