<svg xmlns="http://www.w3.org/2000/svg" width="2700" height="720" viewBox="0 0 900 240">
  <metadata><?xpacket begin="﻿" id="W5M0MpCehiHzreSzNTczkc9d"?>
<x:xmpmeta xmlns:x="adobe:ns:meta/" x:xmptk="Adobe XMP Core 5.6-c142 79.160924, 2017/07/13-01:06:39        ">
   <rdf:RDF xmlns:rdf="http://www.w3.org/1999/02/22-rdf-syntax-ns#">
      <rdf:Description rdf:about=""/>
   </rdf:RDF>
</x:xmpmeta>
                                                                                                    
                                                                                                    
                                                                                                    
                                                                                                    
                                                                                                    
                                                                                                    
                                                                                                    
                                                                                                    
                                                                                                    
                                                                                                    
                                                                                                    
                                                                                                    
                                                                                                    
                                                                                                    
                                                                                                    
                                                                                                    
                                                                                                    
                                                                                                    
                                                                                                    
                                                                                                    
                           
<?xpacket end="w"?></metadata>
<defs>
    <style>
      .cls-1 {
        fill: #fff;
        fill-rule: evenodd;
      }
    </style>
  </defs>
  <path id="modeng_entertainment" data-name="modeng entertainment" class="cls-1" d="M0,240V0L160,175l-59,55L45,169l17-24,38,41,15-13L30,78V207ZM118,92L201,0V239l-30-31V80l-31,33Zm168.66,29.392h43.178v6.145H279.221v13.585h50.617v3.719q0,6.792-5.336,6.792-6.792,0-16.01-.809l3.4,14.555h17.789q16.332,0,16.333-16.819v-7.438h52.234V127.537H346.01v-6.145h43.5V108.455h-43.5v-7.762q25.872-2.1,43.178-5.175l-7.6-12.937q-40.429,7.44-96.867,7.439l4.366,12.453q19.406,0,40.752-.809v6.792H286.66v12.937Zm-4.2-62.1H296.04a57.206,57.206,0,0,1-18.112,14.393V38.917h24.419v7.6H282.456V59.294Zm73.58-20.376v7.6H336.954V59.294h11.158a46.67,46.67,0,0,1-16.333,14.231l7.277,12.129A68.039,68.039,0,0,0,356.036,63.5V81.125h15.04V63.337q5.98,11.807,18.435,22.64l9.218-11.967Q385.79,67.381,379,59.294h13.26V46.518H371.076v-7.6H394.2V24.687H338.894a120.929,120.929,0,0,0-5.336-11.158l-17.951,2.911a66.193,66.193,0,0,1,5.66,8.247H261.918V83.713q-0.486,43.5-11.482,68.244l12.614,11.32q14.229-30.079,14.878-79.564V75.789L284.235,86.3a66.838,66.838,0,0,0,18.112-20.538V85.653h15.039V72.069l8.733,6.954,6.792-10.512a161.6,161.6,0,0,0-15.525-6.792V59.294H332.1V46.518H317.386v-7.6h38.65ZM444.5,124.95h93.471V82.9H444.5V124.95Zm16.98-14.878V97.62h59.511v12.452H461.476ZM446.76,131.9a86.3,86.3,0,0,1,11.966,12.775h-38v16.01H560.769v-16.01H525.515a142.416,142.416,0,0,0,9.218-13.584l-15.687-5.66a134.547,134.547,0,0,1-11.805,19.244H476.677a104.068,104.068,0,0,0-14.069-18.759ZM425.9,47.488a200.749,200.749,0,0,1,19.083,15.04,137.331,137.331,0,0,1-28.947,15.04l10.349,13.261q22.962-9.54,38.327-22.964v5.175h59.349V67.056A184.3,184.3,0,0,0,557.049,90.5l11.159-12.937A166.242,166.242,0,0,1,544.6,63.175a97.659,97.659,0,0,0,17.142-16.818l-11.805-10.35a87.7,87.7,0,0,1-17.3,17.3,83.079,83.079,0,0,1-8.732-9.056,91.594,91.594,0,0,0,17.3-16.172L529.4,17.571a84.519,84.519,0,0,1-14.554,14.554,112.175,112.175,0,0,1-9.218-16.98l-14.069,7.762A131.125,131.125,0,0,0,514.68,57.676h-40.1a87.544,87.544,0,0,0,15.039-25.228V19.835H433.822V35.36h36.71a83.8,83.8,0,0,1-13.746,17.465,194.2,194.2,0,0,0-19.568-16.01ZM601.36,14.175q-1.94,15.525-4.366,30.079H581.469V60.587h12.614q-4.851,24.743-10.35,43.825,13.586,10.674,21.832,17.627a107.187,107.187,0,0,1-26.036,30.241L590.364,165.7a126.284,126.284,0,0,0,27.491-32.828q7.114,6.633,12.938,12.937l11.158-13.1q-6.308-5.98-16.98-14.716,11.317-27.49,12.775-64.524V44.254H613.489q2.1-12.614,4.366-28.462ZM612.2,108.132q-6.306-4.852-11.643-8.571,4.851-15.2,9.864-38.973h11.806A157.991,157.991,0,0,1,612.2,108.132h0Zm24.581,11.8h31.858a67.255,67.255,0,0,1-3.558,8.086q-8.41,13.746-32.343,23.61l8.9,14.069q25.227-9.543,36.224-26.844a64.753,64.753,0,0,0,4.528-9.218q13.1,21.188,38.326,35.739l11.482-13.422q-25.391-12.774-38-32.02h33.96V104.089H689.01q0.486-4.367,1.132-12.614h32.02V75.95H643.083V91.475h30.888q-0.648,8.41-1.294,12.614h-35.9v15.848Zm9.218-55.468h73.1V20.32h-73.1V64.469Zm15.525-13.908V34.228h42.046V50.561H661.519ZM813.209,92.93v48.515q0,7.44-5.984,7.439-7.763,0-19.891-1.132l3.72,16.5h21.993q17.3,0,17.3-18.436V92.93H887.6v-16.5H830.35V47.488H813.209V76.435H772.78q3.232-15.362,6.792-36.062,61.128-.97,98.161-11l-8.086-14.231Q835.524,25.659,779.41,25.98a102,102,0,0,1-13.422-1.455q-3.723,30.564-11.806,68.406h59.027ZM774.4,102.31q-11.322,26.523-27.33,45.442l14.716,10.673q16.01-21.021,27.492-49Zm74.389,6.307A330.775,330.775,0,0,1,874.5,158.749l16.01-8.086q-13.586-27.49-26.684-49.162ZM301.164,229.63V193.325h-6.047l-10.9,24.8q-0.492,1.2-1.71,4.547h-0.165a32.159,32.159,0,0,0-1.617-4.453l-10.711-24.891h-6.351V229.63h4.476V205.794q0-4.829-.234-7.36h0.141a24.369,24.369,0,0,0,1.078,3.868l11.953,27.328h2.6l11.977-27.539a22.1,22.1,0,0,0,1.078-3.657h0.117q-0.351,4.173-.351,7.149V229.63h4.664Zm11.719-4.477q4.664,5.087,12.4,5.086,7.921,0,12.656-5.18t4.735-14.015q0-8.157-4.618-13.242a15.67,15.67,0,0,0-12.187-5.086q-8.133,0-12.891,5.2t-4.758,13.992Q308.218,220.067,312.883,225.153Zm3.7-24.187a11.273,11.273,0,0,1,9-4.032,11.054,11.054,0,0,1,8.894,3.821q3.246,3.82,3.246,10.851,0,6.845-3.316,10.653a11.471,11.471,0,0,1-9.129,3.808A10.952,10.952,0,0,1,316.5,222.1q-3.365-3.974-3.364-10.559Q313.14,205,316.586,200.966Zm43.078,28.664q8.625,0,14.1-5.086t5.473-13.524q0-8.085-5.473-12.89a20.042,20.042,0,0,0-13.722-4.805h-10.36V229.63h9.985Zm0.187-32.133q6.492,0,10.477,3.422t3.984,10.219q0,6.8-3.879,10.57t-10.793,3.773h-5.273V197.5h5.484Zm45.914,27.984H390.929V213.27h12.985v-4.148H390.929V197.5h14.016v-4.172h-18.7V229.63h19.523v-4.149Zm36.516-32.156H437.64v24.961a40.464,40.464,0,0,0,.235,5.3h-0.094a25.715,25.715,0,0,0-1.5-2.508l-17.766-27.75h-5.882V229.63h4.64V204.106a42.481,42.481,0,0,0-.187-5.086h0.14a13.883,13.883,0,0,0,1.242,2.368l18.258,28.242h5.555V193.325Zm36.82,17.18H466.515v4.148h7.875v9.82a14.477,14.477,0,0,1-7.054,1.594,12.438,12.438,0,0,1-9.563-3.8q-3.539-3.8-3.539-10.617,0-6.631,3.844-10.687a12.882,12.882,0,0,1,9.773-4.055,19.1,19.1,0,0,1,10.383,2.742v-5.062a23.76,23.76,0,0,0-9.961-1.875,18.292,18.292,0,0,0-13.64,5.414,18.9,18.9,0,0,0-5.321,13.828q0,8.321,4.817,13.3t12.691,4.98a24.387,24.387,0,0,0,12.281-3.094v-16.64Zm41.977,14.976H506.242V213.27h12.984v-4.148H506.242V197.5h14.016v-4.172h-18.7V229.63h19.524v-4.149Zm36.515-32.156h-4.64v24.961a40.7,40.7,0,0,0,.234,5.3h-0.094a25.715,25.715,0,0,0-1.5-2.508l-17.765-27.75h-5.883V229.63h4.641V204.106a42.405,42.405,0,0,0-.188-5.086h0.141a13.742,13.742,0,0,0,1.242,2.368l18.258,28.242h5.554V193.325Zm31.313,0H563.289V197.5h10.429V229.63h4.711V197.5h10.477v-4.172Zm25.1,32.156H599.172V213.27h12.984v-4.148H599.172V197.5h14.015v-4.172h-18.7V229.63h19.524v-4.149Zm26.578-6.726a27.017,27.017,0,0,0-2.825-4.008,7.453,7.453,0,0,0-2.589-1.805v-0.117q8.061-2.25,8.062-9.8a8.88,8.88,0,0,0-3-7.148q-3-2.555-8.3-2.555H620.875V229.63h4.687V214.348h3.375a5.939,5.939,0,0,1,3.586,1.09,14.076,14.076,0,0,1,3.3,4.114l6.023,10.078h5.532Zm-9.422-21.328a7.872,7.872,0,0,1,5.32,1.593,5.568,5.568,0,0,1,1.828,4.43,6.427,6.427,0,0,1-2,4.922,7.325,7.325,0,0,1-5.215,1.875h-5.531v-12.82h5.6Zm42.984-4.1H648.531V197.5h10.43V229.63h4.711V197.5h10.476v-4.172Zm20.274,0h-5.016L675.578,229.63h5.18l3.492-9.938h15.117l3.7,9.938h5.18Zm-8.7,22.266,5.438-15.094a14.036,14.036,0,0,0,.586-2.531h0.117a17.116,17.116,0,0,0,.562,2.531l5.485,15.094H685.726Zm35.953-22.266H710.008v3.961H713.5v28.383h-3.492v3.961h11.671v-3.961h-3.492V197.286h3.492v-3.961Zm35.579,0h-4.641v24.961a40.7,40.7,0,0,0,.234,5.3h-0.093a26.164,26.164,0,0,0-1.5-2.508l-17.766-27.75h-5.883V229.63h4.641V204.106a42.405,42.405,0,0,0-.188-5.086H732.2a13.742,13.742,0,0,0,1.242,2.368L751.7,229.63h5.555V193.325Zm46.875,36.305V193.325h-6.047l-10.9,24.8q-0.492,1.2-1.711,4.547h-0.164a32.427,32.427,0,0,0-1.617-4.453l-10.711-24.891h-6.351V229.63h4.476V205.794q0-4.829-.234-7.36h0.14a24.6,24.6,0,0,0,1.078,3.868l11.954,27.328h2.6l11.977-27.539a22.2,22.2,0,0,0,1.078-3.657h0.117q-0.351,4.173-.352,7.149V229.63h4.665Zm28.921-4.149H818.218V213.27H831.2v-4.148H818.218V197.5h14.016v-4.172h-18.7V229.63h19.523v-4.149Zm36.516-32.156h-4.641v24.961a40.464,40.464,0,0,0,.235,5.3H865.07a25.715,25.715,0,0,0-1.5-2.508L845.8,193.325h-5.882V229.63h4.64V204.106a42.481,42.481,0,0,0-.187-5.086h0.14a13.819,13.819,0,0,0,1.243,2.368l18.257,28.242h5.555V193.325Zm31.313,0H875.265V197.5H885.7V229.63h4.711V197.5h10.477v-4.172Z"/>
</svg>
