<svg xmlns="http://www.w3.org/2000/svg" width="540" height="540" viewBox="0 0 180 180">
  <metadata><?xpacket begin="﻿" id="W5M0MpCehiHzreSzNTczkc9d"?>
<x:xmpmeta xmlns:x="adobe:ns:meta/" x:xmptk="Adobe XMP Core 5.6-c142 79.160924, 2017/07/13-01:06:39        ">
   <rdf:RDF xmlns:rdf="http://www.w3.org/1999/02/22-rdf-syntax-ns#">
      <rdf:Description rdf:about=""/>
   </rdf:RDF>
</x:xmpmeta>
                                                                                                    
                                                                                                    
                                                                                                    
                                                                                                    
                                                                                                    
                                                                                                    
                                                                                                    
                                                                                                    
                                                                                                    
                                                                                                    
                                                                                                    
                                                                                                    
                                                                                                    
                                                                                                    
                                                                                                    
                                                                                                    
                                                                                                    
                                                                                                    
                                                                                                    
                                                                                                    
                           
<?xpacket end="w"?></metadata>
<defs>
    <style>
      .cls-1 {
        fill: #fff;
        fill-rule: evenodd;
      }
    </style>
  </defs>
  <path id="扫码下载" class="cls-1" d="M147.528,180H33.883a32.345,32.345,0,0,1-22.96-9.585,32.865,32.865,0,0,1-9.51-23.143v-40.9a0.006,0.006,0,0,1,.005-0.006H17.641a0.008,0.008,0,0,1,.009.006v40.9A16.418,16.418,0,0,0,22.4,158.84a16.171,16.171,0,0,0,11.479,4.793H147.528a16.169,16.169,0,0,0,11.479-4.793,16.423,16.423,0,0,0,4.755-11.571v-40.9a0.007,0.007,0,0,1,.007-0.006H179.99a0.008,0.008,0,0,1,.008.006v40.9a32.864,32.864,0,0,1-9.51,23.143A32.35,32.35,0,0,1,147.528,180h0ZM163.762,32.73a16.306,16.306,0,0,0-16.24-16.372H33.89A16.307,16.307,0,0,0,17.649,32.73V57.261a0.008,0.008,0,0,1-.009.006H1.419a0.007,0.007,0,0,1-.005-0.006V32.73A32.608,32.608,0,0,1,33.89,0H147.52A32.609,32.609,0,0,1,180,32.73V57.261a0.008,0.008,0,0,1-.008.006H163.769a0.007,0.007,0,0,1-.007-0.006V32.73Zm0-.006,6.7,59.583H8.115A8.151,8.151,0,0,1,0,84.292a8.283,8.283,0,0,1,8.283-8.349H170.3a8.282,8.282,0,0,1,8.283,8.349,8.151,8.151,0,0,1-8.115,8.015h0Z"/>
</svg>
