<svg xmlns="http://www.w3.org/2000/svg" width="540" height="540" viewBox="0 0 180 180">
  <metadata><?xpacket begin="﻿" id="W5M0MpCehiHzreSzNTczkc9d"?>
<x:xmpmeta xmlns:x="adobe:ns:meta/" x:xmptk="Adobe XMP Core 5.6-c142 79.160924, 2017/07/13-01:06:39        ">
   <rdf:RDF xmlns:rdf="http://www.w3.org/1999/02/22-rdf-syntax-ns#">
      <rdf:Description rdf:about=""/>
   </rdf:RDF>
</x:xmpmeta>
                                                                                                    
                                                                                                    
                                                                                                    
                                                                                                    
                                                                                                    
                                                                                                    
                                                                                                    
                                                                                                    
                                                                                                    
                                                                                                    
                                                                                                    
                                                                                                    
                                                                                                    
                                                                                                    
                                                                                                    
                                                                                                    
                                                                                                    
                                                                                                    
                                                                                                    
                                                                                                    
                           
<?xpacket end="w"?></metadata>
<defs>
    <style>
      .cls-1 {
        fill: #fff;
        fill-rule: evenodd;
      }
    </style>
  </defs>
  <path id="全部游戏" class="cls-1" d="M61.97,0.042H20.712A20.721,20.721,0,0,0,.064,20.716V62.027A20.721,20.721,0,0,0,20.712,82.7H61.97A20.722,20.722,0,0,0,82.619,62.027V20.716A20.721,20.721,0,0,0,61.97.042Zm97.275,0H117.988A20.721,20.721,0,0,0,97.339,20.716V62.027A20.721,20.721,0,0,0,117.988,82.7h41.257A20.722,20.722,0,0,0,179.9,62.027V20.716A20.721,20.721,0,0,0,159.245.042ZM61.97,97.439H20.712A20.723,20.723,0,0,0,.064,118.115v41.308A20.723,20.723,0,0,0,20.712,180.1H61.97a20.723,20.723,0,0,0,20.649-20.674V118.115A20.723,20.723,0,0,0,61.97,97.439Zm97.275,0H117.988a20.723,20.723,0,0,0-20.649,20.676v41.308A20.723,20.723,0,0,0,117.988,180.1h41.257a20.724,20.724,0,0,0,20.65-20.674V118.115A20.723,20.723,0,0,0,159.245,97.439Z"/>
</svg>
