<svg xmlns="http://www.w3.org/2000/svg" width="540" height="540" viewBox="0 0 180 180">
  <metadata><?xpacket begin="﻿" id="W5M0MpCehiHzreSzNTczkc9d"?>
<x:xmpmeta xmlns:x="adobe:ns:meta/" x:xmptk="Adobe XMP Core 5.6-c142 79.160924, 2017/07/13-01:06:39        ">
   <rdf:RDF xmlns:rdf="http://www.w3.org/1999/02/22-rdf-syntax-ns#">
      <rdf:Description rdf:about=""/>
   </rdf:RDF>
</x:xmpmeta>
                                                                                                    
                                                                                                    
                                                                                                    
                                                                                                    
                                                                                                    
                                                                                                    
                                                                                                    
                                                                                                    
                                                                                                    
                                                                                                    
                                                                                                    
                                                                                                    
                                                                                                    
                                                                                                    
                                                                                                    
                                                                                                    
                                                                                                    
                                                                                                    
                                                                                                    
                                                                                                    
                           
<?xpacket end="w"?></metadata>
<defs>
    <style>
      .cls-1 {
        fill: #fff;
        fill-rule: evenodd;
      }
    </style>
  </defs>
  <path id="下载中心" class="cls-1" d="M155.379,0.058H24.517C10.036,0.058-.025,10.117-0.025,24.6v130.86C-0.025,169.941,10.036,180,24.517,180H155.379c14.48,0,24.542-10.06,24.542-24.542V24.6c0-14.482-10.062-24.541-24.542-24.541h0Zm0,114.513c0,3.3-4.879,8.174-8.174,8.174H130.838c-6.71,0-8.175,10.905-8.175,8.174v16.368c0,3.293-4.879,8.172-8.174,8.172H65.407c-3.294,0-8.175-4.879-8.175-8.172V130.919c0,2.731-.06-8.174-8.173-8.174H32.691c-3.293,0-8.174-4.879-8.174-8.174v-81.8c0-3.3,4.881-8.173,8.174-8.173H147.205c3.295,0,8.174,4.877,8.174,8.173v81.8Zm0,0M122.663,81.857H106.3V49.142a8.171,8.171,0,0,0-8.175-8.176H81.754a8.169,8.169,0,0,0-8.174,8.176V81.857H57.213c-4.52,0-5.584,2.587-2.389,5.782l35.125,35.106,35.1-35.106c3.2-3.195,2.129-5.782-2.389-5.782h0Zm0,0"/>
</svg>
