<svg xmlns="http://www.w3.org/2000/svg" width="540" height="540" viewBox="0 0 180 180">
  <metadata><?xpacket begin="﻿" id="W5M0MpCehiHzreSzNTczkc9d"?>
<x:xmpmeta xmlns:x="adobe:ns:meta/" x:xmptk="Adobe XMP Core 5.6-c142 79.160924, 2017/07/13-01:06:39        ">
   <rdf:RDF xmlns:rdf="http://www.w3.org/1999/02/22-rdf-syntax-ns#">
      <rdf:Description rdf:about=""/>
   </rdf:RDF>
</x:xmpmeta>
                                                                                                    
                                                                                                    
                                                                                                    
                                                                                                    
                                                                                                    
                                                                                                    
                                                                                                    
                                                                                                    
                                                                                                    
                                                                                                    
                                                                                                    
                                                                                                    
                                                                                                    
                                                                                                    
                                                                                                    
                                                                                                    
                                                                                                    
                                                                                                    
                                                                                                    
                                                                                                    
                           
<?xpacket end="w"?></metadata>
<defs>
    <style>
      .cls-1 {
        fill: #fff;
        fill-rule: evenodd;
      }
    </style>
  </defs>
  <path id="用户反馈" class="cls-1" d="M173.124,65.375a6.853,6.853,0,0,0-6.869,6.868V160.9a5.423,5.423,0,0,1-5.408,5.41H19.14a5.424,5.424,0,0,1-5.409-5.41V19.16a5.424,5.424,0,0,1,5.409-5.409h88.481a6.868,6.868,0,1,0,0-13.735H19.14A19.162,19.162,0,0,0,0,19.16V160.868A19.162,19.162,0,0,0,19.14,180.011H160.847a19.16,19.16,0,0,0,19.143-19.143V72.243a6.869,6.869,0,0,0-6.866-6.868h0Zm0,0M47.814,99.286l-8.356,32.908a6.878,6.878,0,0,0,8.356,8.357l32.908-8.357a6.916,6.916,0,0,0,3.177-1.8l91.456-91.456a16.194,16.194,0,0,0-.17-22.836L163.937,4.852A16.143,16.143,0,0,0,141.1,4.68L49.615,96.109a7.212,7.212,0,0,0-1.8,3.176h0ZM150.8,14.381a2.471,2.471,0,0,1,3.433.173L165.483,25.8a2.471,2.471,0,0,1,.172,3.433L158.586,36.3l-14.851-14.85Zm-16.8,16.769L148.857,46,83.269,111.563,68.416,96.711ZM59.888,107.583l12.535,12.536-16.8,4.262,4.264-16.8Zm0,0"/>
</svg>
