<svg xmlns="http://www.w3.org/2000/svg" width="540" height="540" viewBox="0 0 180 180">
  <metadata><?xpacket begin="﻿" id="W5M0MpCehiHzreSzNTczkc9d"?>
<x:xmpmeta xmlns:x="adobe:ns:meta/" x:xmptk="Adobe XMP Core 5.6-c142 79.160924, 2017/07/13-01:06:39        ">
   <rdf:RDF xmlns:rdf="http://www.w3.org/1999/02/22-rdf-syntax-ns#">
      <rdf:Description rdf:about=""/>
   </rdf:RDF>
</x:xmpmeta>
                                                                                                    
                                                                                                    
                                                                                                    
                                                                                                    
                                                                                                    
                                                                                                    
                                                                                                    
                                                                                                    
                                                                                                    
                                                                                                    
                                                                                                    
                                                                                                    
                                                                                                    
                                                                                                    
                                                                                                    
                                                                                                    
                                                                                                    
                                                                                                    
                                                                                                    
                                                                                                    
                           
<?xpacket end="w"?></metadata>
<defs>
    <style>
      .cls-1 {
        fill: #fff;
        fill-rule: evenodd;
      }
    </style>
  </defs>
  <path id="热门彩票" class="cls-1" d="M159.6,129.525l-11.4,8.824,2.651,17.2,13.318-3.775,3.934-13.424ZM118.027,122.7l-5.31,13.226,10.612,6.615,10.62-9.257-3.98-10.584H118.027ZM140.246,97.34a39.684,39.684,0,1,0,39.806,39.686A39.745,39.745,0,0,0,140.246,97.34h0Zm0.02,71.253-0.405-6.814-15.59-3.681-3.85,3.544a31.541,31.541,0,0,1,17.947-56.12l2.85,6.252,11.976,3.513,4.151-4.827a31.548,31.548,0,0,1-17.079,58.133h0Zm0,0M100.44,137.026A39.745,39.745,0,0,1,140.246,97.34c0.36,0,.71.044,1.068,0.054l4.931-5.9L166.817,57a13.777,13.777,0,0,0-13.494-20.715l-40.689,4.788a5.325,5.325,0,0,1-4.62-1.769L80.991,8.6A13.828,13.828,0,0,0,57.06,14.994L49.054,55.051a5.3,5.3,0,0,1-3.115,3.834L8.3,75.019A13.754,13.754,0,0,0,7,99.686l35.74,19.968a5.3,5.3,0,0,1,2.695,4.139L49.2,164.465a13.7,13.7,0,0,0,8.805,11.594,13.969,13.969,0,0,0,4.983.926,13.769,13.769,0,0,0,9.342-3.667l24.055-22.155,4.924-5.893A39.708,39.708,0,0,1,100.44,137.026Zm17.5-46.492-17.146.878V82.649l18.027-1.171Zm1.612-16.357L87.894,75.925l0.732-5.108L120.573,67.3ZM61.077,114.206H51.255L68.693,90.831H51.255l3.811-4.748,20.37-1.392,0.732-6.281-14.947-.583,3.96-9.787-3.665-.293,2.05-5.26,36.786-4.528-1.025,7.156L75,67.3l-3.37,5.552H81.961l0.1,10.231H95.954l-2.783,5.693-7.623.732,5.571,9.642,24.474-3.215v7.308L89.578,114.206,79.394,93.2l-0.586,21.011H70.747V101.061Z"/>
</svg>
