<svg xmlns="http://www.w3.org/2000/svg" width="540" height="540" viewBox="0 0 180 180">
  <metadata><?xpacket begin="﻿" id="W5M0MpCehiHzreSzNTczkc9d"?>
<x:xmpmeta xmlns:x="adobe:ns:meta/" x:xmptk="Adobe XMP Core 5.6-c142 79.160924, 2017/07/13-01:06:39        ">
   <rdf:RDF xmlns:rdf="http://www.w3.org/1999/02/22-rdf-syntax-ns#">
      <rdf:Description rdf:about=""/>
   </rdf:RDF>
</x:xmpmeta>
                                                                                                    
                                                                                                    
                                                                                                    
                                                                                                    
                                                                                                    
                                                                                                    
                                                                                                    
                                                                                                    
                                                                                                    
                                                                                                    
                                                                                                    
                                                                                                    
                                                                                                    
                                                                                                    
                                                                                                    
                                                                                                    
                                                                                                    
                                                                                                    
                                                                                                    
                                                                                                    
                           
<?xpacket end="w"?></metadata>
<defs>
    <style>
      .cls-1 {
        fill: #fff;
        fill-rule: evenodd;
      }
    </style>
  </defs>
  <path id="余额刷新" class="cls-1" d="M122.874,138.958a55.557,55.557,0,0,1-33.683,10.778c-1.582-.017-3.156-0.1-4.711-0.243-0.631-.062-1.264-0.172-1.907-0.254-1.222-.169-2.444-0.34-3.631-0.58-0.739-.145-1.46-0.34-2.18-0.516-1.169-.282-2.329-0.572-3.472-0.925-0.545-.176-1.081-0.377-1.626-0.568-1.309-.456-2.62-0.931-3.895-1.487-0.291-.121-0.57-0.261-0.852-0.4-1.495-.682-2.961-1.4-4.388-2.2-0.067-.031-0.122-0.064-0.191-0.1a58.289,58.289,0,0,1-13.091-10.2c-0.059-.061-0.124-0.137-0.183-0.209-1.2-1.247-2.347-2.562-3.437-3.927-0.228-.292-0.448-0.6-0.678-0.9A61,61,0,0,1,32.337,89.969H45.683a0.966,0.966,0,0,0,.852-0.523,1,1,0,0,0-.046-1.016L24.066,53.456a0.952,0.952,0,0,0-1.618,0L0.023,88.424a1.023,1.023,0,0,0-.044,1.022,0.966,0.966,0,0,0,.854.523H14.177a80.367,80.367,0,0,0,13.4,44.6c0.107,0.176.175,0.365,0.29,0.542,0.879,1.3,1.848,2.495,2.787,3.722,0.342,0.468.677,0.944,1.038,1.4,1.38,1.743,2.847,3.377,4.352,4.979,0.148,0.158.279,0.316,0.42,0.457a75.031,75.031,0,0,0,17.019,13.258,5.393,5.393,0,0,0,.492.3c1.792,1,3.638,1.91,5.512,2.766,0.465,0.207.914,0.439,1.388,0.642,1.6,0.69,3.244,1.292,4.9,1.87,0.782,0.277,1.555.557,2.347,0.812,1.45,0.443,2.93.815,4.413,1.185,0.993,0.239,1.967.5,2.979,0.695,0.412,0.09.807,0.22,1.222,0.29,1.406,0.258,2.813.4,4.22,0.578,0.509,0.062,1.009.151,1.51,0.209a74.489,74.489,0,0,0,7.557.428A73.2,73.2,0,0,0,133.3,154.424a9.686,9.686,0,0,0,2.231-13.147,8.864,8.864,0,0,0-12.658-2.319m42.7-48.989a80.367,80.367,0,0,0-13.335-44.494c-0.124-.215-0.21-0.434-0.343-0.636-1.045-1.548-2.18-2.991-3.311-4.439-0.132-.176-0.256-0.361-0.4-0.533A75.211,75.211,0,0,0,119.931,17.8c-0.3-.134-0.6-0.291-0.9-0.422-1.748-.746-3.533-1.4-5.326-2.035-0.649-.218-1.291-0.464-1.951-0.667-1.564-.491-3.155-0.892-4.757-1.277-0.885-.212-1.766-0.444-2.661-0.627-0.449-.089-0.861-0.224-1.3-0.307-1.194-.216-2.4-0.312-3.6-0.469-0.825-.107-1.644-0.244-2.478-0.334-2.012-.193-4.008-0.275-6-0.312-0.361,0-.721-0.058-1.081-0.058-0.061,0-.122.017-0.192,0.021A73.144,73.144,0,0,0,46.472,25.519a9.68,9.68,0,0,0-2.24,13.151,8.864,8.864,0,0,0,12.656,2.317A55.537,55.537,0,0,1,90.3,30.2c1.715,0.013,3.394.1,5.055,0.258,0.519,0.067,1.021.141,1.531,0.21,1.371,0.171,2.724.373,4.059,0.65,0.591,0.117,1.178.276,1.75,0.409,1.309,0.307,2.621.637,3.905,1.039,0.4,0.138.8,0.285,1.2,0.423,1.469,0.5,2.9,1.034,4.315,1.646,0.143,0.059.293,0.138,0.433,0.2A58.055,58.055,0,0,1,134.232,51.94c0.034,0.045.072,0.1,0.1,0.144a60.942,60.942,0,0,1,13.072,37.884H134.066a0.965,0.965,0,0,0-.854.524,1,1,0,0,0,.045,1.02l22.429,34.968a0.953,0.953,0,0,0,.81.449,0.972,0.972,0,0,0,.81-0.449L179.72,91.512a1.011,1.011,0,0,0,.045-1.02,0.967,0.967,0,0,0-.853-0.524H165.577Zm0,0"/>
</svg>
