<svg xmlns="http://www.w3.org/2000/svg" width="540" height="540" viewBox="0 0 180 180">
  <metadata><?xpacket begin="﻿" id="W5M0MpCehiHzreSzNTczkc9d"?>
<x:xmpmeta xmlns:x="adobe:ns:meta/" x:xmptk="Adobe XMP Core 5.6-c142 79.160924, 2017/07/13-01:06:39        ">
   <rdf:RDF xmlns:rdf="http://www.w3.org/1999/02/22-rdf-syntax-ns#">
      <rdf:Description rdf:about=""/>
   </rdf:RDF>
</x:xmpmeta>
                                                                                                    
                                                                                                    
                                                                                                    
                                                                                                    
                                                                                                    
                                                                                                    
                                                                                                    
                                                                                                    
                                                                                                    
                                                                                                    
                                                                                                    
                                                                                                    
                                                                                                    
                                                                                                    
                                                                                                    
                                                                                                    
                                                                                                    
                                                                                                    
                                                                                                    
                                                                                                    
                           
<?xpacket end="w"?></metadata>
<defs>
    <style>
      .cls-1 {
        fill: #fff;
        fill-rule: evenodd;
      }
    </style>
  </defs>
  <path id="返回顶部" class="cls-1" d="M-0.034,109.444H20.622v52.362h9.657V109.444H50.933V99.856H-0.034v9.588Zm104.226-9.588H78.611a12.083,12.083,0,0,0-8.534,3.509,11.909,11.909,0,0,0-3.535,8.478v37.974a11.905,11.905,0,0,0,3.535,8.477,12.077,12.077,0,0,0,8.534,3.51h25.581a12.082,12.082,0,0,0,8.537-3.51,11.9,11.9,0,0,0,3.534-8.477V111.844a11.911,11.911,0,0,0-3.534-8.479,12.088,12.088,0,0,0-8.537-3.509h0Zm2.416,49.961a2.353,2.353,0,0,1-.7,1.7,2.381,2.381,0,0,1-1.71.7H78.611a2.374,2.374,0,0,1-1.706-.7,2.343,2.343,0,0,1-.708-1.7V111.844a2.35,2.35,0,0,1,.708-1.7,2.383,2.383,0,0,1,1.706-.7h25.581a2.384,2.384,0,0,1,1.708.7,2.355,2.355,0,0,1,.707,1.7v37.973h0Zm69.8-46.452a12.09,12.09,0,0,0-8.537-3.509H134.767V161.8h9.656V134.635h23.449a12.079,12.079,0,0,0,8.537-3.512,11.9,11.9,0,0,0,3.536-8.474V111.843a11.908,11.908,0,0,0-3.536-8.478h0Zm-6.121,19.284a2.344,2.344,0,0,1-.706,1.695,2.384,2.384,0,0,1-1.708.7H144.425v-15.6h23.449a2.387,2.387,0,0,1,1.708.7,2.349,2.349,0,0,1,.706,1.7v10.805Zm0,0M45.4,58.432c12.514-11.2,42.21-37.763,43.133-38.572a2.541,2.541,0,0,1,3.478-.086c0.623,0.568,31.479,28.156,43.465,38.875,1.889,1.578,1.388,4.68-.98,4.68s-85.886.022-87.382,0-3.4-2.8-1.714-4.9h0Zm0,0"/>
</svg>
